<?xml version="1.0" standalone="no"?>
<!DOCTYPE svg PUBLIC "-//W3C//DTD SVG 20010904//EN"
 "http://www.w3.org/TR/2001/REC-SVG-20010904/DTD/svg10.dtd">
<svg version="1.0" xmlns="http://www.w3.org/2000/svg"
  viewBox="0 0 1200.000000 1200.000000"
 preserveAspectRatio="xMidYMid meet">
<rect id="orange-circle" stroke="#ffffff" stroke-width="50" x="50" y="50" rx="300" ry="400" width="874" height="874" fill="#e50c81"/> 

<g transform="translate(180.000000,780.000000) scale(0.120000,-0.120000)"
fill="#ffffff" stroke="none">
<path d="M2455 4929 c-900 -40 -1663 -531 -1964 -1262 -161 -392 -203 -869
-114 -1292 34 -166 83 -307 157 -460 100 -203 178 -315 370 -529 242 -271 314
-469 209 -578 l-27 -28 -302 0 c-379 0 -421 -7 -477 -82 -27 -37 -34 -135 -12
-181 22 -46 90 -92 175 -118 64 -19 90 -20 731 -17 732 4 711 2 780 68 98 93
69 296 -60 429 -26 26 -87 74 -137 106 -434 279 -708 1008 -708 1885 0 207 4
263 22 361 36 198 106 391 196 543 266 450 748 716 1296 716 288 0 497 -50
738 -175 422 -220 693 -609 777 -1115 56 -338 4 -950 -114 -1340 -69 -229
-178 -458 -286 -601 -88 -118 -217 -238 -301 -280 -265 -133 -345 -482 -131
-575 39 -18 85 -19 711 -22 645 -3 672 -2 736 17 129 39 190 101 190 193 0 69
-35 128 -95 158 -50 25 -51 25 -380 28 l-330 3 -27 26 c-78 74 -57 222 55 389
25 38 94 123 153 189 58 66 125 145 149 175 160 207 295 485 359 735 50 197
60 285 60 525 1 254 -13 366 -69 585 -196 762 -815 1308 -1675 1479 -214 42
-410 56 -655 45z"/>
</g>
<path stroke="#ffffff" stroke-width="25" fill="transparent" d="M55,700 L900,310 z" />
<!--


  <g transform=" matrix(0.866, -0.5, 0.25, 0.433, 80, 80) scale(5) translate(100,140)">
    <path d="M 0,70 A 65,70 0 0,0 65,0 5,5 0 0,1 75,0 75,70 0 0,1 0,70Z" fill="#000">
      <animateTransform attributeName="transform" type="rotate" from="360 0 0" to="0 0 0" dur="2s" repeatCount="indefinite" />
    </path>
  </g>
  
  <g transform=" matrix(0.866, -0.5, 0.25, 0.433, 80, 80) scale(5) translate(100,140)">
    <path d="M 0,70 A 65,70 0 0,0 65,0 5,5 0 0,1 75,0 75,70 0 0,1 0,70Z" fill="#000">
      <animateTransform attributeName="transform" type="rotate" from="360 0 0" to="0 0 0" begin="1s" dur="2s" repeatCount="indefinite" />
    </path>
  </g>
  
  <g transform=" matrix(0.866, -0.5, 0.25, 0.433, 80, 80) scale(5) translate(100,140)">
    <path d="M 0,70 A 65,70 0 0,0 65,0 5,5 0 0,1 75,0 75,70 0 0,1 0,70Z" fill="#000">
      <animateTransform attributeName="transform" type="rotate" from="360 0 0" to="0 0 0" begin="1s" dur="3s" repeatCount="indefinite" />
    </path>
  </g>
-->
</svg>

