<?xml version="1.0" standalone="no"?>
<!DOCTYPE svg PUBLIC "-//W3C//DTD SVG 20010904//EN"
 "http://www.w3.org/TR/2001/REC-SVG-20010904/DTD/svg10.dtd">
<svg version="1.0" xmlns="http://www.w3.org/2000/svg" viewBox="0 0 160 160" width="160" height="160">
<defs>
    <clipPath id="cut-off-bottom">
<path d="M2455 4929 c-900 -40 -1663 -531 -1964 -1262 -161 -392 -203 -869
-114 -1292 34 -166 83 -307 157 -460 100 -203 178 -315 370 -529 242 -271 314
-469 209 -578 l-27 -28 -302 0 c-379 0 -421 -7 -477 -82 -27 -37 -34 -135 -12
-181 22 -46 90 -92 175 -118 64 -19 90 -20 731 -17 732 4 711 2 780 68 98 93
69 296 -60 429 -26 26 -87 74 -137 106 -434 279 -708 1008 -708 1885 0 207 4
263 22 361 36 198 106 391 196 543 266 450 748 716 1296 716 288 0 497 -50
738 -175 422 -220 693 -609 777 -1115 56 -338 4 -950 -114 -1340 -69 -229
-178 -458 -286 -601 -88 -118 -217 -238 -301 -280 -265 -133 -345 -482 -131
-575 39 -18 85 -19 711 -22 645 -3 672 -2 736 17 129 39 190 101 190 193 0 69
-35 128 -95 158 -50 25 -51 25 -380 28 l-330 3 -27 26 c-78 74 -57 222 55 389
25 38 94 123 153 189 58 66 125 145 149 175 160 207 295 485 359 735 50 197
60 285 60 525 1 254 -13 366 -69 585 -196 762 -815 1308 -1675 1479 -214 42
-410 56 -655 45z" transform="translate(30,135) scale(0.020,-0.020)" fill="#e50c81" />
    </clipPath>
  </defs>

<g transform="translate(30,135) scale(0.020,-0.020)"
fill="#e50c81" stroke="none">
<path d="M2455 4929 c-900 -40 -1663 -531 -1964 -1262 -161 -392 -203 -869
-114 -1292 34 -166 83 -307 157 -460 100 -203 178 -315 370 -529 242 -271 314
-469 209 -578 l-27 -28 -302 0 c-379 0 -421 -7 -477 -82 -27 -37 -34 -135 -12
-181 22 -46 90 -92 175 -118 64 -19 90 -20 731 -17 732 4 711 2 780 68 98 93
69 296 -60 429 -26 26 -87 74 -137 106 -434 279 -708 1008 -708 1885 0 207 4
263 22 361 36 198 106 391 196 543 266 450 748 716 1296 716 288 0 497 -50
738 -175 422 -220 693 -609 777 -1115 56 -338 4 -950 -114 -1340 -69 -229
-178 -458 -286 -601 -88 -118 -217 -238 -301 -280 -265 -133 -345 -482 -131
-575 39 -18 85 -19 711 -22 645 -3 672 -2 736 17 129 39 190 101 190 193 0 69
-35 128 -95 158 -50 25 -51 25 -380 28 l-330 3 -27 26 c-78 74 -57 222 55 389
25 38 94 123 153 189 58 66 125 145 149 175 160 207 295 485 359 735 50 197
60 285 60 525 1 254 -13 366 -69 585 -196 762 -815 1308 -1675 1479 -214 42
-410 56 -655 45z" />
</g>

  <g transform=" matrix(0.866, -0.5, 0.25, 0.433, 80, 80)">
    <path d="M 0,70 A 65,70 0 0,0 65,0 5,5 0 0,1 75,0 75,70 0 0,1 0,70Z" fill="#51287a">
      <animateTransform attributeName="transform" type="rotate" from="360 0 0" to="0 0 0" dur="1.5s" repeatCount="indefinite" />
    </path>
  </g>
  <g transform=" matrix(0.866, -0.5, 0.25, 0.433, 80, 80)">
    <path d="M 0,70 A 65,70 0 0,0 65,0 5,5 0 0,1 75,0 75,70 0 0,1 0,70Z" fill="#51287a">
      <animateTransform attributeName="transform" type="rotate" from="360 0 0" to="0 0 0" dur="1.5s" begin="0.5s" repeatCount="indefinite" />
    </path>
  </g>
  <g transform=" matrix(0.866, -0.5, 0.25, 0.433, 80, 80)">
    <path d="M 0,70 A 65,70 0 0,0 65,0 5,5 0 0,1 75,0 75,70 0 0,1 0,70Z" fill="#51287a">
      <animateTransform attributeName="transform" type="rotate" from="360 0 0" to="0 0 0" dur="1.5s" begin="1s" repeatCount="indefinite" />
    </path>
  </g>
  
  <circle cx="50" cy="50" r="50" fill="#e50c81" clip-path="url(#cut-off-bottom)" />
</svg>